<svg width="744" height="295" viewBox="0 0 744 295" fill="none" xmlns="http://www.w3.org/2000/svg">
<path d="M161.125 139.391H426.045L286.91 0.255615L157.206 129.96C153.716 133.45 156.165 139.329 161.125 139.329V139.391Z" fill="#374E9D"/>
<path d="M426.046 172.338H123.954C118.136 172.338 112.502 174.665 108.399 178.768L1.59862 285.569C-1.83076 289.06 0.618798 295 5.51792 295H303.446L426.046 172.4V172.338Z" fill="#374E9D"/>
<path d="M1034.5 172H736.69L614 295H916.163C921.982 295 927.617 292.667 931.721 288.552L1038.36 181.641C1041.85 178.141 1039.4 172.061 1034.38 172.061L1034.5 172Z" fill="#374E9D"/>
<path d="M471.569 140H737L597.596 0L467.642 130.511C464.145 134.023 466.599 139.938 471.569 139.938V140Z" fill="#F4B527"/>
<path d="M304 295H614.648L737 172H426.413L304 295Z" fill="#F4B527"/>
</svg>
