<svg width="129" height="38" viewBox="0 0 129 38" fill="none" xmlns="http://www.w3.org/2000/svg">
<g clip-path="url(#clip0_356_1921)">
<path d="M45.8435 10.8992H25.5476C25.1537 10.8992 24.9531 10.4194 25.234 10.1374L35.0664 0.260206C35.4129 -0.087712 35.9745 -0.087712 36.321 0.260206L46.1571 10.1374C46.4379 10.4194 46.2374 10.8992 45.8435 10.8992Z" fill="#F4B527"/>
<path d="M12.9945 26.1746H33.2903C33.6842 26.1746 33.8848 26.6543 33.604 26.9363L23.7679 36.8135C23.4214 37.1615 22.8598 37.1615 22.5133 36.8135L12.6772 26.9363C12.3963 26.6543 12.5969 26.1746 12.9908 26.1746H12.9945Z" fill="#374E9D"/>
<path d="M20.7408 10.8992H0.44492C0.0510382 10.8992 -0.14955 10.4194 0.131273 10.1374L9.96374 0.260206C10.3102 -0.087712 10.8719 -0.087712 11.2183 0.260206L21.0544 10.1374C21.3353 10.4194 21.1347 10.8992 20.7408 10.8992Z" fill="#F4B527"/>
<path d="M0.131273 14.3306L8.74197 22.9773C9.07385 23.3106 9.52609 23.501 9.99656 23.501H36.2918C36.7623 23.501 37.2145 23.3142 37.5464 22.9773L46.1571 14.3306C46.4379 14.0486 46.2374 13.5688 45.8435 13.5688H0.44492C0.0510382 13.5688 -0.14955 14.0486 0.131273 14.3306Z" fill="#374E9D"/>
<path d="M64.9686 37.4789L63.2108 32.4103H54.5526L52.7948 37.4789H48.225L56.2449 15.5051H61.741L69.7572 37.4789H64.965H64.9686ZM58.9291 19.6435H58.8343L55.6723 28.9128H62.0948L58.9328 19.6435H58.9291Z" fill="#374E9D"/>
<path d="M84.1376 37.479V24.4229H77.1425V37.479H72.9885V24.4229H70.4648V21.2806H72.9885C72.9885 18.9075 73.4371 16.8859 75.257 15.5382C76.8216 14.3516 78.9296 14 81.9019 14C83.7218 14 85.5125 14.1282 87.1719 14.2893V17.5598C85.7022 17.4316 83.9443 17.3364 82.3505 17.3364C78.1637 17.3364 77.1425 18.4607 77.1425 21.2806H88.2916V37.479H84.1376Z" fill="#374E9D"/>
<path d="M93.7877 37.479V14.4468H97.9417V37.479H93.7877Z" fill="#374E9D"/>
<path d="M113.85 37.4789L113.755 36.6109C111.647 37.3177 109.889 37.9257 107.847 37.9257C106.472 37.9257 105.068 37.5741 104.043 36.6109C102.989 35.6477 102.479 34.4612 102.479 32.7618C102.479 31.0625 103.182 29.3303 104.809 28.4623C106.053 27.7884 107.333 27.6603 109.058 27.6603C110.178 27.6603 111.775 27.7555 113.212 27.8837V27.338C113.212 24.8989 112.191 23.9357 108.803 23.9357C107.398 23.9357 105.83 24.0309 104.364 24.1921V21.1121C106.089 20.9509 107.847 20.8228 109.572 20.8228C111.903 20.8228 114.171 21.0791 115.641 22.3609C117.173 23.6757 117.366 25.4739 117.366 27.7518V37.4716H113.85V37.4789ZM113.212 30.5498C112.125 30.4216 110.721 30.3557 109.762 30.3557C107.366 30.3557 106.501 31.1907 106.501 32.6337C106.501 34.0766 107.428 34.9739 109.12 34.9739C110.396 34.9739 111.837 34.5893 113.208 34.1718V30.5462L113.212 30.5498Z" fill="#374E9D"/>
<path d="M127.6 22.5268C126.794 23.2373 125.63 23.501 124.507 23.501C123.384 23.501 122.249 23.2227 121.429 22.5122C120.528 21.7468 120.028 20.5089 120.028 18.5313C120.028 16.5536 120.513 15.3267 121.414 14.5503C122.246 13.8545 123.394 13.5762 124.518 13.5762C125.641 13.5762 126.779 13.8545 127.596 14.565C128.482 15.3304 128.996 16.5719 128.996 18.5349C128.996 20.4979 128.497 21.7651 127.596 22.5305L127.6 22.5268ZM124.521 14.2134C121.899 14.2134 120.721 15.4806 120.721 18.502C120.721 21.5234 121.983 22.8601 124.492 22.8601C127.125 22.8601 128.303 21.6076 128.303 18.5569C128.303 15.5062 127.042 14.2134 124.518 14.2134H124.521ZM125.823 21.3732L124.675 19.1868H123.537V21.3732H122.665V15.649H124.456C125.174 15.649 125.802 15.7333 126.232 16.1105C126.593 16.4438 126.702 16.9198 126.702 17.4326C126.702 17.8904 126.553 18.3225 126.261 18.6301C126.082 18.8389 125.816 18.9634 125.554 19.0476L126.801 21.3732H125.831H125.823ZM124.438 16.3156H123.551V18.502H124.438C125.448 18.502 125.783 18.1247 125.783 17.4143C125.783 16.6195 125.327 16.3119 124.438 16.3119V16.3156Z" fill="#F4B527"/>
</g>
<defs>
<clipPath id="clip0_356_1921">
<rect width="129" height="38" fill="white"/>
</clipPath>
</defs>
</svg>
